<svg width="193" height="56" viewBox="0 0 193 56" fill="none" xmlns="http://www.w3.org/2000/svg">
<path d="M62.808 39V21.84H68.918C70.946 21.84 72.428 22.2647 73.364 23.114C74.3 23.9633 74.768 25.116 74.768 26.572C74.768 27.4387 74.5167 28.2273 74.014 28.938C73.5113 29.6313 72.8007 30.0733 71.882 30.264V30.29C72.9047 30.4807 73.7107 30.9487 74.3 31.694C74.9067 32.422 75.21 33.254 75.21 34.19C75.21 35.646 74.664 36.816 73.572 37.7C72.48 38.5667 70.92 39 68.892 39H62.808ZM64.888 29.38H68.944C71.3707 29.38 72.584 28.444 72.584 26.572C72.584 24.7173 71.3707 23.79 68.944 23.79H64.888V29.38ZM64.888 37.05H69.386C70.6167 37.05 71.5267 36.7987 72.116 36.296C72.7227 35.7933 73.026 35.0913 73.026 34.19C73.026 33.2713 72.7227 32.5693 72.116 32.084C71.5267 31.5813 70.6167 31.33 69.386 31.33H64.888V37.05ZM79.9243 21.84V39H77.8443V21.84H79.9243ZM83.5877 39V21.84H89.6977C91.7257 21.84 93.2077 22.2647 94.1437 23.114C95.0797 23.9633 95.5477 25.116 95.5477 26.572C95.5477 27.4387 95.2964 28.2273 94.7937 28.938C94.291 29.6313 93.5804 30.0733 92.6617 30.264V30.29C93.6844 30.4807 94.4904 30.9487 95.0797 31.694C95.6864 32.422 95.9897 33.254 95.9897 34.19C95.9897 35.646 95.4437 36.816 94.3517 37.7C93.2597 38.5667 91.6997 39 89.6717 39H83.5877ZM85.6677 29.38H89.7237C92.1504 29.38 93.3637 28.444 93.3637 26.572C93.3637 24.7173 92.1504 23.79 89.7237 23.79H85.6677V29.38ZM85.6677 37.05H90.1657C91.3964 37.05 92.3064 36.7987 92.8957 36.296C93.5024 35.7933 93.8057 35.0913 93.8057 34.19C93.8057 33.2713 93.5024 32.5693 92.8957 32.084C92.3064 31.5813 91.3964 31.33 90.1657 31.33H85.6677V37.05ZM98.624 39V21.84H110.662V23.79H100.704V29.328H108.452V31.278H100.704V37.05H111.052V39H98.624ZM119.754 21.84C121.505 21.84 122.909 22.2907 123.966 23.192C125.023 24.0933 125.552 25.3153 125.552 26.858C125.552 28.0887 125.205 29.1027 124.512 29.9C123.819 30.6973 122.883 31.2433 121.704 31.538L126.592 39H124.122L119.442 31.876H115.334V39H113.254V21.84H119.754ZM119.728 29.926C122.155 29.926 123.368 28.9033 123.368 26.858C123.368 24.8127 122.155 23.79 119.728 23.79H115.334V29.926H119.728ZM134.107 21.58C135.615 21.58 136.915 21.892 138.007 22.516C139.099 23.1227 140.009 24.024 140.737 25.22L138.995 26.572C138.354 25.4627 137.626 24.6827 136.811 24.232C136.014 23.764 135.043 23.53 133.899 23.53C132.512 23.53 131.498 23.8073 130.857 24.362C130.216 24.9167 129.895 25.5927 129.895 26.39C129.895 26.9967 130.086 27.534 130.467 28.002C130.848 28.4527 131.611 28.808 132.755 29.068L136.473 29.9C138.12 30.264 139.264 30.8187 139.905 31.564C140.564 32.292 140.893 33.202 140.893 34.294C140.893 35.2647 140.616 36.1313 140.061 36.894C139.524 37.6393 138.761 38.22 137.773 38.636C136.785 39.052 135.624 39.26 134.289 39.26C132.434 39.26 130.9 38.896 129.687 38.168C128.474 37.4227 127.546 36.5213 126.905 35.464L128.725 33.982C129.228 34.97 129.938 35.776 130.857 36.4C131.793 37.0067 132.98 37.31 134.419 37.31C135.754 37.31 136.802 37.0673 137.565 36.582C138.345 36.0967 138.735 35.3947 138.735 34.476C138.735 33.9213 138.553 33.4273 138.189 32.994C137.825 32.5433 137.14 32.2053 136.135 31.98L132.105 31.07C130.51 30.7233 129.375 30.16 128.699 29.38C128.04 28.6 127.711 27.6987 127.711 26.676C127.711 25.7573 127.962 24.9167 128.465 24.154C128.985 23.374 129.722 22.75 130.675 22.282C131.646 21.814 132.79 21.58 134.107 21.58ZM154.578 21.84V23.79H148.598V39H146.518V23.79H140.538V21.84H154.578ZM156.256 39V21.84H168.294V23.79H158.336V29.328H166.084V31.278H158.336V37.05H168.684V39H156.256ZM172.966 21.84V39H170.886V21.84H172.966ZM190.097 21.84V39H187.523L180.347 27.508L178.527 24.284H178.501L178.605 26.884V39H176.629V21.84H179.203L186.353 33.28L188.199 36.582H188.225L188.121 33.956V21.84H190.097Z" fill="#000079"/>
<path d="M63.848 43.08V51H63.248V43.08H63.848ZM66.3066 51V45H66.8466L66.8826 46.248C67.0586 45.824 67.3426 45.492 67.7346 45.252C68.1266 45.004 68.5706 44.88 69.0666 44.88C69.5866 44.88 70.0346 45.004 70.4106 45.252C70.7946 45.5 71.0586 45.864 71.2026 46.344C71.3066 46.04 71.4746 45.78 71.7066 45.564C71.9386 45.34 72.2106 45.168 72.5226 45.048C72.8346 44.928 73.1586 44.868 73.4946 44.868C73.9106 44.868 74.2906 44.952 74.6346 45.12C74.9786 45.28 75.2506 45.528 75.4506 45.864C75.6506 46.192 75.7506 46.604 75.7506 47.1V50.988H75.1506V47.16C75.1506 46.568 74.9906 46.128 74.6706 45.84C74.3506 45.544 73.9346 45.396 73.4226 45.396C73.0386 45.396 72.6866 45.488 72.3666 45.672C72.0546 45.856 71.8026 46.112 71.6106 46.44C71.4266 46.76 71.3346 47.128 71.3346 47.544V51H70.7346V47.172C70.7346 46.58 70.5746 46.14 70.2546 45.852C69.9346 45.556 69.5186 45.408 69.0066 45.408C68.6466 45.408 68.3066 45.496 67.9866 45.672C67.6666 45.848 67.4066 46.1 67.2066 46.428C67.0066 46.756 66.9066 47.148 66.9066 47.604V51H66.3066ZM78.0061 51V45H78.5461L78.5821 46.248C78.7581 45.824 79.0421 45.492 79.4341 45.252C79.8261 45.004 80.2701 44.88 80.7661 44.88C81.2861 44.88 81.7341 45.004 82.1101 45.252C82.4941 45.5 82.7581 45.864 82.9021 46.344C83.0061 46.04 83.1741 45.78 83.4061 45.564C83.6381 45.34 83.9101 45.168 84.2221 45.048C84.5341 44.928 84.8581 44.868 85.1941 44.868C85.6101 44.868 85.9901 44.952 86.3341 45.12C86.6781 45.28 86.9501 45.528 87.1501 45.864C87.3501 46.192 87.4501 46.604 87.4501 47.1V50.988H86.8501V47.16C86.8501 46.568 86.6901 46.128 86.3701 45.84C86.0501 45.544 85.6341 45.396 85.1221 45.396C84.7381 45.396 84.3861 45.488 84.0661 45.672C83.7541 45.856 83.5021 46.112 83.3101 46.44C83.1261 46.76 83.0341 47.128 83.0341 47.544V51H82.4341V47.172C82.4341 46.58 82.2741 46.14 81.9541 45.852C81.6341 45.556 81.2181 45.408 80.7061 45.408C80.3461 45.408 80.0061 45.496 79.6861 45.672C79.3661 45.848 79.1061 46.1 78.9061 46.428C78.7061 46.756 78.6061 47.148 78.6061 47.604V51H78.0061ZM92.1537 44.88C92.7137 44.88 93.2057 45.004 93.6297 45.252C94.0617 45.5 94.3977 45.86 94.6377 46.332C94.8857 46.796 95.0097 47.352 95.0097 48C95.0097 48.648 94.8857 49.208 94.6377 49.68C94.3977 50.144 94.0617 50.5 93.6297 50.748C93.2057 50.996 92.7137 51.12 92.1537 51.12C91.5937 51.12 91.0977 50.996 90.6657 50.748C90.2417 50.5 89.9057 50.144 89.6577 49.68C89.4177 49.208 89.2977 48.648 89.2977 48C89.2977 47.352 89.4177 46.796 89.6577 46.332C89.9057 45.86 90.2417 45.5 90.6657 45.252C91.0977 45.004 91.5937 44.88 92.1537 44.88ZM92.1537 45.396C91.4737 45.396 90.9257 45.628 90.5097 46.092C90.1017 46.556 89.8977 47.192 89.8977 48C89.8977 48.808 90.1017 49.444 90.5097 49.908C90.9257 50.372 91.4737 50.604 92.1537 50.604C92.8337 50.604 93.3777 50.372 93.7857 49.908C94.2017 49.444 94.4097 48.808 94.4097 48C94.4097 47.192 94.2017 46.556 93.7857 46.092C93.3777 45.628 92.8337 45.396 92.1537 45.396ZM99.7252 51.12C99.2052 51.12 98.7452 50.988 98.3452 50.724C97.9452 50.452 97.6572 50.088 97.4812 49.632L97.4452 51H96.9052V42.24H97.5052V46.308C97.6892 45.868 97.9772 45.52 98.3692 45.264C98.7612 45.008 99.2132 44.88 99.7252 44.88C100.253 44.88 100.721 45.004 101.129 45.252C101.537 45.5 101.861 45.856 102.101 46.32C102.341 46.784 102.461 47.344 102.461 48C102.461 48.648 102.341 49.208 102.101 49.68C101.861 50.144 101.533 50.5 101.117 50.748C100.709 50.996 100.245 51.12 99.7252 51.12ZM99.6532 50.592C100.333 50.592 100.869 50.36 101.261 49.896C101.661 49.432 101.861 48.8 101.861 48C101.861 47.2 101.665 46.568 101.273 46.104C100.881 45.64 100.345 45.408 99.6652 45.408C99.2412 45.408 98.8652 45.516 98.5372 45.732C98.2172 45.94 97.9652 46.24 97.7812 46.632C97.5972 47.024 97.5052 47.484 97.5052 48.012C97.5052 48.54 97.5972 49 97.7812 49.392C97.9652 49.776 98.2172 50.072 98.5372 50.28C98.8652 50.488 99.2372 50.592 99.6532 50.592ZM104.674 43.836C104.522 43.836 104.398 43.792 104.302 43.704C104.214 43.608 104.17 43.484 104.17 43.332C104.17 43.18 104.214 43.06 104.302 42.972C104.398 42.876 104.522 42.828 104.674 42.828C104.826 42.828 104.946 42.876 105.034 42.972C105.13 43.06 105.178 43.18 105.178 43.332C105.178 43.484 105.13 43.608 105.034 43.704C104.946 43.792 104.826 43.836 104.674 43.836ZM104.974 45V51H104.374V45H104.974ZM107.848 42.24V49.584C107.848 49.952 107.912 50.212 108.04 50.364C108.168 50.516 108.368 50.592 108.64 50.592C108.808 50.592 108.94 50.58 109.036 50.556C109.14 50.532 109.26 50.492 109.396 50.436L109.312 50.964C109.088 51.068 108.824 51.12 108.52 51.12C108.096 51.12 107.776 51 107.56 50.76C107.352 50.512 107.248 50.128 107.248 49.608V42.24H107.848ZM111.069 43.836C110.917 43.836 110.793 43.792 110.697 43.704C110.609 43.608 110.565 43.484 110.565 43.332C110.565 43.18 110.609 43.06 110.697 42.972C110.793 42.876 110.917 42.828 111.069 42.828C111.221 42.828 111.341 42.876 111.429 42.972C111.525 43.06 111.573 43.18 111.573 43.332C111.573 43.484 111.525 43.608 111.429 43.704C111.341 43.792 111.221 43.836 111.069 43.836ZM111.369 45V51H110.769V45H111.369ZM116.14 51.12C115.588 51.12 115.096 50.996 114.664 50.748C114.232 50.5 113.892 50.144 113.644 49.68C113.404 49.208 113.284 48.648 113.284 48C113.284 47.352 113.404 46.796 113.644 46.332C113.884 45.86 114.212 45.5 114.628 45.252C115.052 45.004 115.532 44.88 116.068 44.88C116.612 44.88 117.076 45 117.46 45.24C117.852 45.48 118.148 45.816 118.348 46.248C118.556 46.672 118.66 47.164 118.66 47.724C118.66 47.804 118.656 47.88 118.648 47.952C118.648 48.016 118.644 48.072 118.636 48.12H113.872C113.896 48.896 114.112 49.504 114.52 49.944C114.936 50.376 115.472 50.592 116.128 50.592C116.592 50.592 116.988 50.492 117.316 50.292C117.652 50.092 117.912 49.816 118.096 49.464L118.576 49.74C118.352 50.164 118.028 50.5 117.604 50.748C117.188 50.996 116.7 51.12 116.14 51.12ZM116.056 45.408C115.472 45.408 114.98 45.6 114.58 45.984C114.188 46.36 113.956 46.892 113.884 47.58H118.072C118.048 46.916 117.856 46.388 117.496 45.996C117.144 45.604 116.664 45.408 116.056 45.408ZM120.551 51V45H121.091L121.127 46.2C121.311 45.776 121.603 45.452 122.003 45.228C122.403 44.996 122.855 44.88 123.359 44.88C124.023 44.88 124.571 45.068 125.003 45.444C125.435 45.82 125.651 46.376 125.651 47.112V51H125.051V47.304C125.051 46.648 124.887 46.168 124.559 45.864C124.231 45.56 123.811 45.408 123.299 45.408C122.923 45.408 122.571 45.496 122.243 45.672C121.915 45.84 121.651 46.088 121.451 46.416C121.251 46.744 121.151 47.144 121.151 47.616V51H120.551Z" fill="#000079"/>
<path d="M21.5 14V9.5L33.5 2L45.5 10.5V55H1V24L15.5 14L30 24V42.5H21.5V22" stroke="#000079" stroke-width="2"/>
</svg>
