<svg width="303" height="90" viewBox="0 0 303 90" fill="none" xmlns="http://www.w3.org/2000/svg">
<path d="M102.32 64V37.6H111.72C114.84 37.6 117.12 38.2533 118.56 39.56C120 40.8667 120.72 42.64 120.72 44.88C120.72 46.2133 120.333 47.4267 119.56 48.52C118.787 49.5867 117.693 50.2667 116.28 50.56V50.6C117.853 50.8933 119.093 51.6133 120 52.76C120.933 53.88 121.4 55.16 121.4 56.6C121.4 58.84 120.56 60.64 118.88 62C117.2 63.3333 114.8 64 111.68 64H102.32ZM105.52 49.2H111.76C115.493 49.2 117.36 47.76 117.36 44.88C117.36 42.0267 115.493 40.6 111.76 40.6H105.52V49.2ZM105.52 61H112.44C114.333 61 115.733 60.6133 116.64 59.84C117.573 59.0667 118.04 57.9867 118.04 56.6C118.04 55.1867 117.573 54.1067 116.64 53.36C115.733 52.5867 114.333 52.2 112.44 52.2H105.52V61ZM128.653 37.6V64H125.453V37.6H128.653ZM134.289 64V37.6H143.689C146.809 37.6 149.089 38.2533 150.529 39.56C151.969 40.8667 152.689 42.64 152.689 44.88C152.689 46.2133 152.302 47.4267 151.529 48.52C150.755 49.5867 149.662 50.2667 148.249 50.56V50.6C149.822 50.8933 151.062 51.6133 151.969 52.76C152.902 53.88 153.369 55.16 153.369 56.6C153.369 58.84 152.529 60.64 150.849 62C149.169 63.3333 146.769 64 143.649 64H134.289ZM137.489 49.2H143.729C147.462 49.2 149.329 47.76 149.329 44.88C149.329 42.0267 147.462 40.6 143.729 40.6H137.489V49.2ZM137.489 61H144.409C146.302 61 147.702 60.6133 148.609 59.84C149.542 59.0667 150.009 57.9867 150.009 56.6C150.009 55.1867 149.542 54.1067 148.609 53.36C147.702 52.5867 146.302 52.2 144.409 52.2H137.489V61ZM157.422 64V37.6H175.942V40.6H160.622V49.12H172.542V52.12H160.622V61H176.542V64H157.422ZM189.929 37.6C192.623 37.6 194.783 38.2933 196.409 39.68C198.036 41.0667 198.849 42.9467 198.849 45.32C198.849 47.2133 198.316 48.7733 197.249 50C196.183 51.2267 194.743 52.0667 192.929 52.52L200.449 64H196.649L189.449 53.04H183.129V64H179.929V37.6H189.929ZM189.889 50.04C193.623 50.04 195.489 48.4667 195.489 45.32C195.489 42.1733 193.623 40.6 189.889 40.6H183.129V50.04H189.889ZM212.011 37.2C214.331 37.2 216.331 37.68 218.011 38.64C219.691 39.5733 221.091 40.96 222.211 42.8L219.531 44.88C218.544 43.1733 217.424 41.9733 216.171 41.28C214.944 40.56 213.451 40.2 211.691 40.2C209.558 40.2 207.998 40.6267 207.011 41.48C206.024 42.3333 205.531 43.3733 205.531 44.6C205.531 45.5333 205.824 46.36 206.411 47.08C206.998 47.7733 208.171 48.32 209.931 48.72L215.651 50C218.184 50.56 219.944 51.4133 220.931 52.56C221.944 53.68 222.451 55.08 222.451 56.76C222.451 58.2533 222.024 59.5867 221.171 60.76C220.344 61.9067 219.171 62.8 217.651 63.44C216.131 64.08 214.344 64.4 212.291 64.4C209.438 64.4 207.078 63.84 205.211 62.72C203.344 61.5733 201.918 60.1867 200.931 58.56L203.731 56.28C204.504 57.8 205.598 59.04 207.011 60C208.451 60.9333 210.278 61.4 212.491 61.4C214.544 61.4 216.158 61.0267 217.331 60.28C218.531 59.5333 219.131 58.4533 219.131 57.04C219.131 56.1867 218.851 55.4267 218.291 54.76C217.731 54.0667 216.678 53.5467 215.131 53.2L208.931 51.8C206.478 51.2667 204.731 50.4 203.691 49.2C202.678 48 202.171 46.6133 202.171 45.04C202.171 43.6267 202.558 42.3333 203.331 41.16C204.131 39.96 205.264 39 206.731 38.28C208.224 37.56 209.984 37.2 212.011 37.2ZM243.505 37.6V40.6H234.305V64H231.105V40.6H221.905V37.6H243.505ZM246.086 64V37.6H264.606V40.6H249.286V49.12H261.206V52.12H249.286V61H265.206V64H246.086ZM271.793 37.6V64H268.593V37.6H271.793ZM298.149 37.6V64H294.189L283.149 46.32L280.349 41.36H280.309L280.469 45.36V64H277.429V37.6H281.389L292.389 55.2L295.229 60.28H295.269L295.109 56.24V37.6H298.149Z" fill="#000079"/>
<path d="M102.926 73.46V86H101.976V73.46H102.926ZM106.819 86V76.5H107.674L107.731 78.476C108.009 77.8047 108.459 77.279 109.08 76.899C109.7 76.5063 110.403 76.31 111.189 76.31C112.012 76.31 112.721 76.5063 113.317 76.899C113.925 77.2917 114.343 77.868 114.571 78.628C114.735 78.1467 115.001 77.735 115.369 77.393C115.736 77.0383 116.167 76.766 116.661 76.576C117.155 76.386 117.668 76.291 118.2 76.291C118.858 76.291 119.46 76.424 120.005 76.69C120.549 76.9433 120.98 77.336 121.297 77.868C121.613 78.3873 121.772 79.0397 121.772 79.825V85.981H120.822V79.92C120.822 78.9827 120.568 78.286 120.062 77.83C119.555 77.3613 118.896 77.127 118.086 77.127C117.478 77.127 116.92 77.2727 116.414 77.564C115.92 77.8553 115.521 78.2607 115.217 78.78C114.925 79.2867 114.78 79.8693 114.78 80.528V86H113.83V79.939C113.83 79.0017 113.576 78.305 113.07 77.849C112.563 77.3803 111.904 77.146 111.094 77.146C110.524 77.146 109.985 77.2853 109.479 77.564C108.972 77.8427 108.56 78.2417 108.244 78.761C107.927 79.2803 107.769 79.901 107.769 80.623V86H106.819ZM125.343 86V76.5H126.198L126.255 78.476C126.534 77.8047 126.983 77.279 127.604 76.899C128.225 76.5063 128.928 76.31 129.713 76.31C130.536 76.31 131.246 76.5063 131.841 76.899C132.449 77.2917 132.867 77.868 133.095 78.628C133.26 78.1467 133.526 77.735 133.893 77.393C134.26 77.0383 134.691 76.766 135.185 76.576C135.679 76.386 136.192 76.291 136.724 76.291C137.383 76.291 137.984 76.424 138.529 76.69C139.074 76.9433 139.504 77.336 139.821 77.868C140.138 78.3873 140.296 79.0397 140.296 79.825V85.981H139.346V79.92C139.346 78.9827 139.093 78.286 138.586 77.83C138.079 77.3613 137.421 77.127 136.61 77.127C136.002 77.127 135.445 77.2727 134.938 77.564C134.444 77.8553 134.045 78.2607 133.741 78.78C133.45 79.2867 133.304 79.8693 133.304 80.528V86H132.354V79.939C132.354 79.0017 132.101 78.305 131.594 77.849C131.087 77.3803 130.429 77.146 129.618 77.146C129.048 77.146 128.51 77.2853 128.003 77.564C127.496 77.8427 127.085 78.2417 126.768 78.761C126.451 79.2803 126.293 79.901 126.293 80.623V86H125.343ZM147.743 76.31C148.63 76.31 149.409 76.5063 150.08 76.899C150.764 77.2917 151.296 77.8617 151.676 78.609C152.069 79.3437 152.265 80.224 152.265 81.25C152.265 82.276 152.069 83.1627 151.676 83.91C151.296 84.6447 150.764 85.2083 150.08 85.601C149.409 85.9937 148.63 86.19 147.743 86.19C146.857 86.19 146.071 85.9937 145.387 85.601C144.716 85.2083 144.184 84.6447 143.791 83.91C143.411 83.1627 143.221 82.276 143.221 81.25C143.221 80.224 143.411 79.3437 143.791 78.609C144.184 77.8617 144.716 77.2917 145.387 76.899C146.071 76.5063 146.857 76.31 147.743 76.31ZM147.743 77.127C146.667 77.127 145.799 77.4943 145.14 78.229C144.494 78.9637 144.171 79.9707 144.171 81.25C144.171 82.5293 144.494 83.5363 145.14 84.271C145.799 85.0057 146.667 85.373 147.743 85.373C148.82 85.373 149.681 85.0057 150.327 84.271C150.986 83.5363 151.315 82.5293 151.315 81.25C151.315 79.9707 150.986 78.9637 150.327 78.229C149.681 77.4943 148.82 77.127 147.743 77.127ZM159.732 86.19C158.908 86.19 158.18 85.981 157.547 85.563C156.913 85.1323 156.457 84.556 156.179 83.834L156.122 86H155.267V72.13H156.217V78.571C156.508 77.8743 156.964 77.3233 157.585 76.918C158.205 76.5127 158.921 76.31 159.732 76.31C160.568 76.31 161.309 76.5063 161.955 76.899C162.601 77.2917 163.114 77.8553 163.494 78.59C163.874 79.3247 164.064 80.2113 164.064 81.25C164.064 82.276 163.874 83.1627 163.494 83.91C163.114 84.6447 162.594 85.2083 161.936 85.601C161.29 85.9937 160.555 86.19 159.732 86.19ZM159.618 85.354C160.694 85.354 161.543 84.9867 162.164 84.252C162.797 83.5173 163.114 82.5167 163.114 81.25C163.114 79.9833 162.803 78.9827 162.183 78.248C161.562 77.5133 160.713 77.146 159.637 77.146C158.965 77.146 158.37 77.317 157.851 77.659C157.344 77.9883 156.945 78.4633 156.654 79.084C156.362 79.7047 156.217 80.433 156.217 81.269C156.217 82.105 156.362 82.8333 156.654 83.454C156.945 84.062 157.344 84.5307 157.851 84.86C158.37 85.1893 158.959 85.354 159.618 85.354ZM167.568 74.657C167.327 74.657 167.131 74.5873 166.979 74.448C166.839 74.296 166.77 74.0997 166.77 73.859C166.77 73.6183 166.839 73.4283 166.979 73.289C167.131 73.137 167.327 73.061 167.568 73.061C167.808 73.061 167.998 73.137 168.138 73.289C168.29 73.4283 168.366 73.6183 168.366 73.859C168.366 74.0997 168.29 74.296 168.138 74.448C167.998 74.5873 167.808 74.657 167.568 74.657ZM168.043 76.5V86H167.093V76.5H168.043ZM172.593 72.13V83.758C172.593 84.3407 172.695 84.7523 172.897 84.993C173.1 85.2337 173.417 85.354 173.847 85.354C174.113 85.354 174.322 85.335 174.474 85.297C174.639 85.259 174.829 85.1957 175.044 85.107L174.911 85.943C174.557 86.1077 174.139 86.19 173.657 86.19C172.986 86.19 172.479 86 172.137 85.62C171.808 85.2273 171.643 84.6193 171.643 83.796V72.13H172.593ZM177.693 74.657C177.453 74.657 177.256 74.5873 177.104 74.448C176.965 74.296 176.895 74.0997 176.895 73.859C176.895 73.6183 176.965 73.4283 177.104 73.289C177.256 73.137 177.453 73.061 177.693 73.061C177.934 73.061 178.124 73.137 178.263 73.289C178.415 73.4283 178.491 73.6183 178.491 73.859C178.491 74.0997 178.415 74.296 178.263 74.448C178.124 74.5873 177.934 74.657 177.693 74.657ZM178.168 76.5V86H177.218V76.5H178.168ZM185.721 86.19C184.847 86.19 184.068 85.9937 183.384 85.601C182.7 85.2083 182.162 84.6447 181.769 83.91C181.389 83.1627 181.199 82.276 181.199 81.25C181.199 80.224 181.389 79.3437 181.769 78.609C182.149 77.8617 182.668 77.2917 183.327 76.899C183.998 76.5063 184.758 76.31 185.607 76.31C186.468 76.31 187.203 76.5 187.811 76.88C188.432 77.26 188.9 77.792 189.217 78.476C189.546 79.1473 189.711 79.9263 189.711 80.813C189.711 80.9397 189.705 81.06 189.692 81.174C189.692 81.2753 189.686 81.364 189.673 81.44H182.13C182.168 82.6687 182.51 83.6313 183.156 84.328C183.815 85.012 184.663 85.354 185.702 85.354C186.437 85.354 187.064 85.1957 187.583 84.879C188.115 84.5623 188.527 84.1253 188.818 83.568L189.578 84.005C189.223 84.6763 188.71 85.2083 188.039 85.601C187.38 85.9937 186.608 86.19 185.721 86.19ZM185.588 77.146C184.663 77.146 183.884 77.45 183.251 78.058C182.63 78.6533 182.263 79.4957 182.149 80.585H188.78C188.742 79.5337 188.438 78.6977 187.868 78.077C187.311 77.4563 186.551 77.146 185.588 77.146ZM192.706 86V76.5H193.561L193.618 78.4C193.91 77.7287 194.372 77.2157 195.005 76.861C195.639 76.4937 196.354 76.31 197.152 76.31C198.204 76.31 199.071 76.6077 199.755 77.203C200.439 77.7983 200.781 78.6787 200.781 79.844V86H199.831V80.148C199.831 79.1093 199.572 78.3493 199.052 77.868C198.533 77.3867 197.868 77.146 197.057 77.146C196.462 77.146 195.905 77.2853 195.385 77.564C194.866 77.83 194.448 78.2227 194.131 78.742C193.815 79.2613 193.656 79.8947 193.656 80.642V86H192.706Z" fill="#000079"/>
<path d="M36.0899 21.0189V13.8868L56.0449 2L76 15.4717V86H2V36.8679L26.1124 21.0189L50.2247 36.8679V66.1887H36.0899V33.6981" stroke="#000079" stroke-width="3"/>
</svg>
