<svg width="13" height="12" viewBox="0 0 13 12" fill="none" xmlns="http://www.w3.org/2000/svg">
<path d="M0.9375 2.35938H12.3125C12.5312 2.35938 12.75 2.16797 12.75 1.92188V0.828125C12.75 0.609375 12.5312 0.390625 12.3125 0.390625H0.9375C0.691406 0.390625 0.5 0.609375 0.5 0.828125V1.92188C0.5 2.16797 0.691406 2.35938 0.9375 2.35938ZM0.9375 6.73438H12.3125C12.5312 6.73438 12.75 6.54297 12.75 6.29688V5.20312C12.75 4.98438 12.5312 4.76562 12.3125 4.76562H0.9375C0.691406 4.76562 0.5 4.98438 0.5 5.20312V6.29688C0.5 6.54297 0.691406 6.73438 0.9375 6.73438ZM0.9375 11.1094H12.3125C12.5312 11.1094 12.75 10.918 12.75 10.6719V9.57812C12.75 9.35938 12.5312 9.14062 12.3125 9.14062H0.9375C0.691406 9.14062 0.5 9.35938 0.5 9.57812V10.6719C0.5 10.918 0.691406 11.1094 0.9375 11.1094Z" fill="#000079"/>
</svg>
